<svg width="512.001" height="512.001" xmlns="http://www.w3.org/2000/svg">

 <g>
  <title>background</title>
  <rect fill="none" id="canvas_background" height="402" width="582" y="-1" x="-1"/>
 </g>
 <g>
  <title>Layer 1</title>
  <circle stroke="null" id="svg_2" fill="#d9eaf7" r="167.059998" cy="251.500017" cx="256.001"/>
  <path id="svg_3" fill="#75a6a8" d="m116.943,256c0,-92.129 69.582,-167.994 159.058,-177.94c-6.567,-0.73 -13.238,-1.118 -20,-1.118c-98.891,0 -179.058,80.167 -179.058,179.058s80.167,179.058 179.058,179.058c6.762,0 13.433,-0.388 20,-1.118c-89.475,-9.946 -159.058,-85.811 -159.058,-177.94z"/>
  <path id="svg_4" d="m379.873,126.498c-2.986,2.871 -3.078,7.619 -0.207,10.604c30.885,32.114 47.894,74.34 47.894,118.898c0,94.597 -76.96,171.558 -171.558,171.558c-39.488,0 -76.607,-13.051 -107.345,-37.74c-3.229,-2.594 -7.95,-2.078 -10.544,1.15c-2.594,3.229 -2.079,7.95 1.15,10.544c32.952,26.469 74.411,41.046 116.738,41.046c102.869,0 186.558,-83.689 186.558,-186.558c0,-48.455 -18.497,-94.373 -52.082,-129.295c-2.87,-2.986 -7.618,-3.078 -10.604,-0.207z"/>
  <path id="svg_5" d="m256.001,84.442c37.047,0 72.321,11.625 102.009,33.618c3.327,2.465 8.025,1.767 10.491,-1.563c2.466,-3.328 1.767,-8.025 -1.562,-10.491c-32.291,-23.92 -70.652,-36.564 -110.938,-36.564c-102.869,0 -186.558,83.689 -186.558,186.558c0,45.772 16.75,89.8 47.165,123.974c2.684,3.016 7.522,3.345 10.589,0.616c3.094,-2.754 3.37,-7.495 0.616,-10.589c-27.968,-31.424 -43.37,-71.911 -43.37,-114.001c0,-94.597 76.96,-171.558 171.558,-171.558z"/>
  <path id="svg_7" d="m145.526,241.708l0,18.637c0,4.142 3.358,7.5 7.5,7.5s7.5,-3.358 7.5,-7.5l0,-18.637c0,-4.142 -3.358,-7.5 -7.5,-7.5s-7.5,3.358 -7.5,7.5z"/>
  <path id="svg_8" d="m351.476,241.708l0,18.637c0,4.142 3.358,7.5 7.5,7.5s7.5,-3.358 7.5,-7.5l0,-18.637c0,-4.142 -3.358,-7.5 -7.5,-7.5s-7.5,3.358 -7.5,7.5z"/>
  <path id="svg_9" d="m275.77,254.112c-4.823,5.517 -12.028,8.68 -19.769,8.68c-7.741,0 -14.947,-3.164 -19.769,-8.681c-2.727,-3.119 -7.464,-3.437 -10.583,-0.71c-3.119,2.726 -3.437,7.464 -0.711,10.583c7.671,8.776 18.993,13.809 31.063,13.809c12.069,0 23.391,-5.033 31.062,-13.808c2.727,-3.119 2.408,-7.857 -0.71,-10.583c-3.119,-2.728 -7.858,-2.409 -10.583,0.71z"/>
  <g id="svg_10"/>
  <g id="svg_11"/>
  <g id="svg_12"/>
  <g id="svg_13"/>
  <g id="svg_14"/>
  <g id="svg_15"/>
  <g id="svg_16"/>
  <g id="svg_17"/>
  <g id="svg_18"/>
  <g id="svg_19"/>
  <g id="svg_20"/>
  <g id="svg_21"/>
  <g id="svg_22"/>
  <g id="svg_23"/>
  <g id="svg_24"/>
  <path transform="rotate(3.3490004539489746 151.14178466796875,128.76208496093724) " id="svg_25" d="m67.50049,141.438c386.71051,1.014 -23,68 12,-14c35,-82 22,-6 21.49951,-6.438c0.50049,0.438 -33.49951,20.438 -33.49951,20.438z" fill-opacity="0" stroke-opacity="null" stroke-width="null" stroke="null" fill="#000000"/>
  <path d="m90.500488,62.438004c0,0 1.24292,4.946999 2,9c1.480385,7.925179 1.499237,12.958473 2,22c0.221199,3.993881 -0.540497,9.053505 -1,11c-1.541229,6.528755 -5.73909,10.238876 -14,19c-2.910583,3.08683 -4,4 -4,4c0,-1 -0.580688,-5.221176 5,-19c4.53595,-11.199341 15,-34 20,-44l5,-14" id="svg_26" fill-opacity="0" stroke-opacity="null" stroke-width="null" stroke="null" fill="none"/>
 </g>
</svg>