<svg width="512" height="512" xmlns="http://www.w3.org/2000/svg">

 <g>
  <title>background</title>
  <rect fill="none" id="canvas_background" height="402" width="582" y="-1" x="-1"/>
 </g>
 <g>
  <title>Layer 1</title>
  <polygon stroke="null" id="svg_1" fill="#57D0E6" points="542.4054543417515,377.9779968261719 3.3108848274043226,377.9779968261719 -16,397.9779968261719 -16,497.8800048828125 568.9999806880951,497.8800048828125 568.9999806880951,397.9779968261719 "/>
  <path stroke="null" id="svg_10" fill="#85E7FF" d="m459.428551,354.978l0,0c-24.752933,9.783 -52.818493,9.783 -77.571425,0l0,0c-24.752933,-9.783 -52.818493,-9.783 -77.571425,0l0,0c-24.752933,9.783 -52.818493,9.783 -77.571425,0l0,0c-24.752933,-9.783 -52.818493,-9.783 -77.571425,0l0,0c-24.752933,9.783 -52.818493,9.783 -77.571425,0l0,0c-24.752933,-9.783 -52.818493,-9.783 -77.571425,0l0,40c24.752933,-9.783 52.818493,-9.783 77.571425,0l0,0c24.752933,9.783 52.818493,9.783 77.571425,0l0,0c24.752933,-9.783 52.818493,-9.783 77.571425,0l0,0c24.752933,9.783 52.818493,9.783 77.571425,0l0,0c24.752933,-9.783 52.818493,-9.783 77.571425,0l0,0c24.752933,9.783 52.818493,9.783 77.571425,0l0,0c24.752933,-9.783 52.818493,-9.783 77.571425,0l0,-40c-24.75184,-9.783 -52.818493,-9.783 -77.571425,0z"/>
  <g id="svg_15"/>
  <g id="svg_16"/>
  <g id="svg_17"/>
  <g id="svg_18"/>
  <g id="svg_19"/>
  <g id="svg_20"/>
  <g id="svg_21"/>
  <g id="svg_22"/>
  <g id="svg_23"/>
  <g id="svg_24"/>
  <g id="svg_25"/>
  <g id="svg_26"/>
  <g id="svg_27"/>
  <g id="svg_28"/>
  <g id="svg_29"/>
 </g>
</svg>